<?xml version="1.0" encoding="UTF-8"?>
<svg width="603.46" height="389.19" version="1.1" viewBox="0 0 603.46 389.19" xmlns="http://www.w3.org/2000/svg">
 <g fill="#f2f2f2">
  <path d="m218.8 315.97c82.964 0 150.22-67.187 150.22-150.07 0-82.879-67.256-150.07-150.22-150.07-82.965 0-150.22 67.187-150.22 150.07 0 82.879 67.256 150.07 150.22 150.07z"/>
  <path d="m393.02 311.53c15.71 0 28.445-12.722 28.445-28.415s-12.735-28.415-28.445-28.415c-15.709 0-28.444 12.722-28.444 28.415s12.735 28.415 28.444 28.415z"/>
  <path d="m536.12 375.47c6.382 0 11.555-5.169 11.555-11.544s-5.173-11.544-11.555-11.544-11.556 5.169-11.556 11.544 5.174 11.544 11.556 11.544z"/>
 </g>
 <path d="m338.88 359.49c-71.798 3e-3 -134.27-53.502-143.5-126.48l1.764-0.223c9.114 72.077 70.823 124.92 141.73 124.93 6.025 0 12.044-0.38 18.021-1.136 78.209-9.87 133.8-81.461 123.92-159.59l1.764-0.223c10.002 79.099-46.278 151.58-125.46 161.57-6.051 0.765-12.145 1.149-18.245 1.15z" fill="#3f3d56"/>
 <path d="m342.74 389.19h-28.269c-0.604 1e-3 -1.201-0.134-1.745-0.396s-1.022-0.643-1.397-1.116c-0.371-0.46-0.633-0.999-0.766-1.575-0.132-0.576-0.133-1.175-1e-3 -1.751 2.683-11.827 2.524-24.12-0.462-35.874-0.204-0.812-0.146-1.668 0.165-2.445 0.312-0.777 0.861-1.436 1.569-1.883 9.78-6.052 20.429-5.863 32.558 0.579 0.551 0.29 1.028 0.703 1.393 1.208 0.365 0.504 0.609 1.086 0.712 1.7 2.008 12.621 2.079 25.473 0.208 38.115-0.133 0.955-0.608 1.83-1.337 2.462s-1.662 0.979-2.628 0.976z" fill="#a4bcfd"/>
 <path d="m213.85 238.23h-28.269c-0.604 1e-3 -1.201-0.134-1.745-0.396s-1.022-0.643-1.397-1.116c-0.371-0.461-0.633-0.999-0.766-1.575s-0.133-1.175-1e-3 -1.751c2.692-11.868 2.523-24.205-0.494-35.995-0.19-0.776-0.144-1.591 0.133-2.341s0.772-1.4 1.422-1.866c14.537-10.444 25.985-10.141 34.026 0.902 0.363 0.504 0.603 1.084 0.704 1.696 2.148 12.904 2.267 26.064 0.352 39.004-0.133 0.955-0.608 1.83-1.337 2.462s-1.663 0.979-2.628 0.976z" fill="#ccc"/>
 <g fill="#fff">
  <path d="m329.53 362.68h-9.725c-0.537-1e-3 -1.052-0.215-1.431-0.595-0.379-0.379-0.592-0.894-0.592-1.43 0-0.537 0.213-1.051 0.592-1.431s0.894-0.594 1.431-0.595h9.725c0.538 0 1.053 0.214 1.434 0.593 0.38 0.38 0.593 0.895 0.593 1.433 0 0.537-0.213 1.052-0.593 1.432-0.381 0.38-0.896 0.593-1.434 0.593z"/>
  <path d="m341.42 370.69h-21.615c-0.537-1e-3 -1.052-0.215-1.431-0.595s-0.592-0.894-0.592-1.431c0-0.536 0.213-1.051 0.592-1.431 0.379-0.379 0.894-0.593 1.431-0.594h21.615c0.537 1e-3 1.052 0.215 1.431 0.594 0.38 0.38 0.593 0.895 0.593 1.431 0 0.537-0.213 1.051-0.593 1.431-0.379 0.38-0.894 0.594-1.431 0.595z"/>
  <path d="m205.09 209.95h-9.725c-0.537-1e-3 -1.051-0.215-1.431-0.594-0.379-0.38-0.592-0.895-0.592-1.431 0-0.537 0.213-1.051 0.592-1.431 0.38-0.38 0.894-0.594 1.431-0.595h9.725c0.537 1e-3 1.052 0.215 1.431 0.595s0.592 0.894 0.592 1.431c0 0.536-0.213 1.051-0.592 1.431-0.379 0.379-0.894 0.593-1.431 0.594z"/>
  <path d="m205.09 217.06h-9.725c-0.537-1e-3 -1.051-0.215-1.431-0.595-0.379-0.379-0.592-0.894-0.592-1.431 0-0.536 0.213-1.051 0.592-1.43 0.38-0.38 0.894-0.594 1.431-0.595h9.725c0.537 1e-3 1.052 0.215 1.431 0.595 0.379 0.379 0.592 0.894 0.592 1.43 0 0.537-0.213 1.052-0.592 1.431-0.379 0.38-0.894 0.594-1.431 0.595z"/>
  <path d="m205.09 224.16h-9.725c-0.537-1e-3 -1.051-0.215-1.431-0.595-0.379-0.38-0.592-0.894-0.592-1.431 0-0.536 0.213-1.051 0.592-1.431 0.38-0.379 0.894-0.593 1.431-0.594h9.725c0.537 1e-3 1.052 0.215 1.431 0.594 0.379 0.38 0.592 0.895 0.592 1.431 0 0.537-0.213 1.051-0.592 1.431s-0.894 0.594-1.431 0.595z"/>
 </g>
 <path d="m594.33 271.6h-90.368c-2.422-3e-3 -4.744-0.966-6.456-2.676-1.713-1.711-2.676-4.03-2.679-6.45v-55.601c3e-3 -2.419 0.966-4.739 2.679-6.449 1.712-1.711 4.034-2.673 6.456-2.676h90.368c2.422 3e-3 4.744 0.965 6.456 2.676 1.713 1.71 2.676 4.03 2.679 6.449v55.601c-3e-3 2.42-0.966 4.739-2.679 6.45-1.712 1.711-4.034 2.673-6.456 2.676z" fill="#e6e6e6"/>
 <path d="m558.42 264.44h-48.111c-2.268-3e-3 -4.442-0.904-6.046-2.506s-2.507-3.775-2.509-6.04v-42.436c2e-3 -2.266 0.905-4.438 2.509-6.041 1.604-1.602 3.778-2.503 6.046-2.505h77.664c2.268 2e-3 4.442 0.903 6.046 2.505 1.604 1.603 2.506 3.775 2.509 6.041v12.914c-0.012 10.093-4.03 19.769-11.174 26.905-7.144 7.137-16.831 11.151-26.934 11.163z" fill="#fff"/>
 <g fill="#a4bcfd">
  <path d="m580.23 228.14h-62.168c-0.538 0-1.054-0.213-1.434-0.593s-0.594-0.895-0.594-1.432 0.214-1.052 0.594-1.432 0.896-0.593 1.434-0.593h62.168c0.538 0 1.054 0.213 1.434 0.593s0.594 0.895 0.594 1.432-0.214 1.052-0.594 1.432-0.896 0.593-1.434 0.593z"/>
  <path d="m527.78 236.15h-9.724c-0.537-1e-3 -1.052-0.215-1.431-0.595-0.38-0.38-0.593-0.894-0.593-1.431 0-0.536 0.213-1.051 0.593-1.43 0.379-0.38 0.894-0.594 1.431-0.595h9.724c0.537 1e-3 1.052 0.215 1.431 0.595 0.38 0.379 0.593 0.894 0.593 1.43 0 0.537-0.213 1.051-0.593 1.431-0.379 0.38-0.894 0.594-1.431 0.595z"/>
  <path d="m545.01 244.15h-26.948c-0.538 0-1.054-0.213-1.434-0.593s-0.594-0.895-0.594-1.432 0.214-1.053 0.594-1.432c0.38-0.38 0.896-0.594 1.434-0.594h26.948c0.538 0 1.054 0.214 1.434 0.594 0.38 0.379 0.594 0.895 0.594 1.432s-0.214 1.052-0.594 1.432-0.896 0.593-1.434 0.593z"/>
 </g>
 <path d="m491.67 215.74c10.557 0 19.116-8.55 19.116-19.097 0-10.546-8.559-19.096-19.116-19.096-10.558 0-19.117 8.55-19.117 19.096 0 10.547 8.559 19.097 19.117 19.097z" fill="#3f3d56"/>
 <path d="m275.27 51.368c1.266-6.4169 3.784-12.522 7.411-17.966 3.628-5.4446 8.293-10.122 13.73-13.766 10.98-7.3583 24.437-10.058 37.409-7.5046 6.424 1.2641 12.535 3.7798 17.985 7.4034s10.133 8.284 13.78 13.715 6.188 11.527 7.477 17.939c1.289 6.4121 1.301 13.015 0.035 19.432l-1.745-0.3432c2.465-12.497-0.141-25.46-7.244-36.038s-18.121-17.904-30.631-20.366-25.487 0.141-36.075 7.2368c-10.589 7.0958-17.922 18.103-20.387 30.6z" fill="#3f3d56"/>
 <path d="m294.2 82.788-28.246 1.1687c-0.603 0.0262-1.205-0.0844-1.759-0.3235-0.555-0.2391-1.048-0.6006-1.443-1.0572-0.389-0.4449-0.673-0.9721-0.83-1.5421-0.156-0.5701-0.182-1.1681-0.074-1.7493 2.168-11.807 1.536-23.957-1.844-35.477-0.261-0.881-0.208-1.8251 0.15-2.6714s0.998-1.5424 1.812-1.9697c11.57-6.0046 22.41-6.3091 32.218-0.9061 0.514 0.2791 0.961 0.6667 1.31 1.136s0.591 1.0089 0.71 1.5812c2.553 12.57 3.165 25.456 1.815 38.211-0.094 0.9597-0.532 1.8532-1.234 2.5148-0.703 0.6617-1.621 1.0468-2.585 1.084z" fill="#a4bcfd"/>
 <path d="m293.01 64.321-21.597 0.8936c-0.266 0.0112-0.532-0.03-0.782-0.1215-0.25-0.0914-0.48-0.2312-0.676-0.4113-0.196-0.1802-0.355-0.3972-0.467-0.6386-0.112-0.2415-0.175-0.5026-0.186-0.7685s0.03-0.5314 0.122-0.7813 0.232-0.4792 0.412-0.675c0.181-0.1957 0.398-0.354 0.64-0.4658 0.242-0.1117 0.503-0.1748 0.77-0.1856l21.596-0.8936c0.266-0.011 0.532 0.0304 0.782 0.122 0.25 0.0915 0.48 0.2313 0.675 0.4115 0.196 0.1801 0.355 0.3971 0.467 0.6384s0.175 0.5023 0.186 0.7681c0.011 0.2657-0.03 0.5311-0.122 0.7808-0.092 0.2498-0.232 0.4791-0.412 0.6748s-0.397 0.354-0.639 0.4659-0.503 0.1751-0.769 0.1861z" fill="#fff"/>
 <path d="m292.72 57.223-21.597 0.8936c-0.537 0.0222-1.061-0.1697-1.457-0.5335s-0.63-0.8698-0.653-1.4065c-0.022-0.5368 0.17-1.0604 0.534-1.4556 0.365-0.3953 0.871-0.6298 1.408-0.652l21.597-0.8936c0.537-0.0223 1.062 0.1696 1.457 0.5335 0.396 0.3638 0.631 0.8697 0.653 1.4065 0.022 0.5367-0.17 1.0603-0.534 1.4556-0.364 0.3952-0.871 0.6298-1.408 0.652z" fill="#fff"/>
 <path d="m479.05 73.852h-90.368c-2.422-0.0027-4.743-0.965-6.456-2.6758-1.712-1.7107-2.676-4.0302-2.678-6.4496v-55.601c2e-3 -2.4194 0.966-4.7389 2.678-6.4496 1.713-1.7108 4.034-2.6731 6.456-2.6758h90.368c2.422 0.0027333 4.744 0.96504 6.456 2.6758 1.713 1.7108 2.676 4.0303 2.679 6.4496v55.601c-3e-3 2.4194-0.966 4.7389-2.679 6.4497-1.712 1.7107-4.034 2.673-6.456 2.6757z" fill="#e6e6e6"/>
 <path d="m443.15 66.69h-48.111c-2.269-0.0025-4.443-0.9037-6.047-2.5059s-2.506-3.7745-2.509-6.0404v-42.436c3e-3 -2.2659 0.905-4.4382 2.509-6.0404 1.604-1.6022 3.778-2.5034 6.047-2.5059h77.663c2.268 0.00252 4.443 0.90373 6.047 2.5059 1.603 1.6022 2.506 3.7745 2.508 6.0403v12.914c-0.011 10.093-4.03 19.769-11.174 26.906-7.144 7.1367-16.83 11.151-26.933 11.162z" fill="#fff"/>
 <g fill="#a4bcfd">
  <path d="m464.95 30.399h-62.168c-0.538 0-1.053-0.2134-1.434-0.5933-0.38-0.3798-0.594-0.895-0.594-1.4322s0.214-1.0523 0.594-1.4322c0.381-0.3798 0.896-0.5932 1.434-0.5932h62.168c0.538 0 1.054 0.2134 1.434 0.5932 0.38 0.3799 0.594 0.895 0.594 1.4322s-0.214 1.0524-0.594 1.4322c-0.38 0.3799-0.896 0.5933-1.434 0.5933z"/>
  <path d="m412.51 38.402h-9.725c-0.537-0.0011-1.052-0.215-1.431-0.5948-0.379-0.3797-0.592-0.8943-0.592-1.4308 0-0.5364 0.213-1.051 0.592-1.4307 0.379-0.3798 0.894-0.5937 1.431-0.5948h9.725c0.537 0.0011 1.051 0.215 1.431 0.5948 0.379 0.3797 0.592 0.8943 0.592 1.4307 0 0.5365-0.213 1.0511-0.592 1.4308-0.38 0.3798-0.894 0.5937-1.431 0.5948z"/>
  <path d="m429.73 46.406h-26.949c-0.538 0-1.054-0.2134-1.434-0.5933-0.38-0.3798-0.594-0.895-0.594-1.4322s0.214-1.0524 0.594-1.4323 0.896-0.5933 1.434-0.5933h26.949c0.537 0.0011 1.051 0.2151 1.431 0.5948 0.379 0.3797 0.592 0.8943 0.592 1.4308 0 0.5364-0.213 1.051-0.592 1.4307-0.38 0.3798-0.894 0.5937-1.431 0.5948z"/>
 </g>
 <path d="m390.29 83.477c5.574-8.9573 2.823-20.732-6.143-26.3-8.967-5.568-20.754-2.8204-26.328 6.1368-5.573 8.9573-2.823 20.732 6.143 26.3 8.967 5.568 20.754 2.8204 26.328-6.1369z" fill="#3f3d56"/>
 <path d="m119.4 222.37c-7.843-20.712-7.128-43.689 1.987-63.875s25.884-35.928 46.617-43.763c20.734-7.835 43.734-7.121 63.94 1.985 20.207 9.106 35.965 25.857 43.808 46.569l-1.663 0.629c-3.801-10.038-9.544-19.229-16.9-27.049-7.357-7.821-16.183-14.117-25.976-18.53-9.792-4.412-20.359-6.855-31.096-7.189-10.738-0.333-21.436 1.45-31.484 5.247-10.047 3.797-19.248 9.534-27.077 16.883-7.828 7.349-14.131 16.166-18.548 25.949-4.417 9.782-6.863 20.338-7.196 31.064-0.334 10.727 1.451 21.414 5.252 31.451z" fill="#3f3d56"/>
 <path d="m192.52 139.67h-28.269c-0.604 1e-3 -1.201-0.134-1.745-0.396s-1.022-0.643-1.397-1.116c-0.371-0.461-0.633-0.999-0.766-1.575s-0.133-1.175-1e-3 -1.751c2.676-11.799 2.525-24.063-0.442-35.793-0.21-0.8301-0.146-1.706 0.184-2.4964 0.33-0.7903 0.907-1.4528 1.645-1.888 10.24-5.9547 21.176-5.773 32.502 0.5416 0.536 0.2921 0.999 0.7027 1.352 1.2004s0.588 1.0694 0.686 1.6716c2.016 12.636 2.089 25.506 0.216 38.164-0.133 0.955-0.608 1.83-1.337 2.462s-1.663 0.979-2.628 0.976z" fill="#a4bcfd"/>
 <path d="m179.31 112.28h-9.725c-0.537-1e-3 -1.052-0.215-1.431-0.595-0.38-0.379-0.593-0.894-0.593-1.43 0-0.537 0.213-1.051 0.593-1.431 0.379-0.38 0.894-0.594 1.431-0.595h9.725c0.537 1e-3 1.051 0.215 1.431 0.595 0.379 0.38 0.592 0.894 0.592 1.431 0 0.536-0.213 1.051-0.592 1.43-0.38 0.38-0.894 0.594-1.431 0.595z" fill="#fff"/>
 <path d="m191.2 120.28h-21.615c-0.538 0-1.054-0.214-1.434-0.594-0.38-0.379-0.594-0.895-0.594-1.432s0.214-1.052 0.594-1.432 0.896-0.593 1.434-0.593h21.615c0.537 1e-3 1.052 0.215 1.431 0.594 0.379 0.38 0.592 0.895 0.592 1.431 0 0.537-0.213 1.051-0.592 1.431s-0.894 0.594-1.431 0.595z" fill="#fff"/>
 <path d="m99.502 221.25h-90.368c-2.4218-3e-3 -4.7437-0.965-6.4562-2.676-1.7125-1.711-2.6758-4.03-2.6785-6.45v-55.6c0.0027314-2.42 0.96601-4.739 2.6785-6.45 1.7125-1.711 4.0344-2.673 6.4562-2.676h90.368c2.4215 3e-3 4.7435 0.965 6.4565 2.676 1.712 1.711 2.676 4.03 2.678 6.45v55.601c-2e-3 2.419-0.966 4.738-2.678 6.449-1.713 1.711-4.035 2.673-6.4565 2.676z" fill="#e6e6e6"/>
 <path d="m63.598 214.09h-48.111c-2.2682-2e-3 -4.4428-0.904-6.0467-2.506-1.6039-1.602-2.5061-3.774-2.5087-6.04v-42.436c0.00262-2.266 0.90484-4.438 2.5087-6.04 1.6039-1.602 3.7785-2.504 6.0467-2.506h77.664c2.2682 2e-3 4.4427 0.904 6.0465 2.506 1.604 1.602 2.506 3.774 2.509 6.04v12.914c-0.012 10.093-4.0306 19.769-11.175 26.906-7.1441 7.136-16.83 11.151-26.934 11.162z" fill="#fff"/>
 <g fill="#a4bcfd">
  <path d="m85.403 177.8h-62.168c-0.5378 0-1.0535-0.214-1.4337-0.594-0.3802-0.379-0.5939-0.895-0.5939-1.432s0.2137-1.052 0.5939-1.432 0.8959-0.593 1.4337-0.593h62.168c0.5378 0 1.0535 0.213 1.4337 0.593s0.5939 0.895 0.5939 1.432-0.2137 1.053-0.5939 1.432c-0.3802 0.38-0.8959 0.594-1.4337 0.594z"/>
  <path d="m32.959 185.8h-9.7248c-0.537-1e-3 -1.0517-0.215-1.431-0.595-0.3794-0.379-0.5924-0.894-0.5924-1.43 0-0.537 0.213-1.051 0.5924-1.431 0.3793-0.38 0.894-0.594 1.431-0.595h9.7248c0.537 1e-3 1.0516 0.215 1.431 0.595 0.3793 0.38 0.5923 0.894 0.5923 1.431 0 0.536-0.213 1.051-0.5923 1.43-0.3794 0.38-0.894 0.594-1.431 0.595z"/>
  <path d="m50.183 193.81h-26.948c-0.537-1e-3 -1.0517-0.215-1.431-0.595-0.3794-0.38-0.5924-0.894-0.5924-1.431 0-0.536 0.213-1.051 0.5924-1.431 0.3793-0.379 0.894-0.593 1.431-0.594h26.948c0.5378 0 1.0535 0.213 1.4338 0.593 0.3802 0.38 0.5939 0.895 0.5939 1.432s-0.2137 1.053-0.5939 1.432c-0.3803 0.38-0.896 0.594-1.4338 0.594z"/>
 </g>
 <path d="m135.18 229.1c5.574-8.957 2.823-20.732-6.143-26.3-8.967-5.568-20.754-2.821-26.327 6.137-5.5742 8.957-2.8238 20.732 6.143 26.3 8.966 5.568 20.753 2.82 26.327-6.137z" fill="#3f3d56"/>
 <path d="m289.4 192.95h-28.27c-0.604 1e-3 -1.2-0.134-1.744-0.396s-1.022-0.644-1.398-1.116c-0.371-0.461-0.632-0.999-0.765-1.575s-0.133-1.175-2e-3 -1.751c2.672-11.779 2.526-24.02-0.426-35.732-0.209-0.842-0.138-1.729 0.202-2.526 0.341-0.798 0.933-1.463 1.686-1.894 13.733-7.853 24.607-7.636 33.244 0.663 0.605 0.592 1.004 1.363 1.137 2.198 2.098 12.804 2.2 25.856 0.301 38.691-0.133 0.955-0.608 1.829-1.337 2.462-0.729 0.632-1.663 0.978-2.628 0.976z" fill="#ff6584"/>
 <path d="m277.97 166.44h-9.725c-0.537-1e-3 -1.052-0.215-1.431-0.595-0.379-0.379-0.592-0.894-0.592-1.431 0-0.536 0.213-1.051 0.592-1.43 0.379-0.38 0.894-0.594 1.431-0.595h9.725c0.537 1e-3 1.052 0.215 1.431 0.595 0.379 0.379 0.592 0.894 0.592 1.43 0 0.537-0.213 1.052-0.592 1.431-0.379 0.38-0.894 0.594-1.431 0.595z" fill="#fff"/>
 <path d="m289.86 174.45h-21.615c-0.538 0-1.053-0.214-1.434-0.594-0.38-0.38-0.594-0.895-0.594-1.432s0.214-1.052 0.594-1.432c0.381-0.38 0.896-0.594 1.434-0.594h21.615c0.537 2e-3 1.052 0.215 1.431 0.595 0.38 0.38 0.593 0.895 0.593 1.431s-0.213 1.051-0.593 1.431c-0.379 0.38-0.894 0.593-1.431 0.595z" fill="#fff"/>
</svg>
